<mxfile host="app.diagrams.net" agent="Mozilla/5.0 (Windows NT 10.0; Win64; x64) AppleWebKit/537.36 (KHTML, like Gecko) Chrome/136.0.0.0 Safari/537.36" version="26.2.14">
  <diagram name="페이지-1" id="BuyM0IUo5tTknzdK7hS_">
    <mxGraphModel dx="793" dy="1070" grid="1" gridSize="10" guides="1" tooltips="1" connect="1" arrows="1" fold="1" page="1" pageScale="1" pageWidth="827" pageHeight="1169" math="0" shadow="0">
      <root>
        <mxCell id="0" />
        <mxCell id="1" parent="0" />
        <mxCell id="u2DwO2f_TJGbcGotMEJf-3" style="edgeStyle=orthogonalEdgeStyle;rounded=0;orthogonalLoop=1;jettySize=auto;html=1;" edge="1" parent="1" source="u2DwO2f_TJGbcGotMEJf-1" target="u2DwO2f_TJGbcGotMEJf-2">
          <mxGeometry relative="1" as="geometry" />
        </mxCell>
        <mxCell id="u2DwO2f_TJGbcGotMEJf-1" value="시작" style="rounded=1;whiteSpace=wrap;html=1;" vertex="1" parent="1">
          <mxGeometry x="95" y="20" width="80" height="40" as="geometry" />
        </mxCell>
        <mxCell id="u2DwO2f_TJGbcGotMEJf-5" value="" style="edgeStyle=orthogonalEdgeStyle;rounded=0;orthogonalLoop=1;jettySize=auto;html=1;" edge="1" parent="1">
          <mxGeometry relative="1" as="geometry">
            <mxPoint x="135" y="140" as="sourcePoint" />
            <mxPoint x="135" y="160" as="targetPoint" />
          </mxGeometry>
        </mxCell>
        <mxCell id="u2DwO2f_TJGbcGotMEJf-2" value="char ip_decimal_str[4][9],&lt;div&gt;int ip_decimal[4], int i = 0&lt;/div&gt;" style="rounded=0;whiteSpace=wrap;html=1;" vertex="1" parent="1">
          <mxGeometry x="55" y="80" width="160" height="60" as="geometry" />
        </mxCell>
        <mxCell id="u2DwO2f_TJGbcGotMEJf-7" style="edgeStyle=orthogonalEdgeStyle;rounded=0;orthogonalLoop=1;jettySize=auto;html=1;entryX=0.5;entryY=0;entryDx=0;entryDy=0;" edge="1" parent="1" source="u2DwO2f_TJGbcGotMEJf-4">
          <mxGeometry relative="1" as="geometry">
            <mxPoint x="135" y="220" as="targetPoint" />
          </mxGeometry>
        </mxCell>
        <mxCell id="u2DwO2f_TJGbcGotMEJf-4" value="2진수 IP주소" style="shape=parallelogram;perimeter=parallelogramPerimeter;whiteSpace=wrap;html=1;fixedSize=1;" vertex="1" parent="1">
          <mxGeometry x="55" y="160" width="160" height="40" as="geometry" />
        </mxCell>
        <mxCell id="u2DwO2f_TJGbcGotMEJf-11" style="edgeStyle=orthogonalEdgeStyle;rounded=0;orthogonalLoop=1;jettySize=auto;html=1;entryX=0.5;entryY=0;entryDx=0;entryDy=0;" edge="1" parent="1" source="u2DwO2f_TJGbcGotMEJf-8" target="u2DwO2f_TJGbcGotMEJf-10">
          <mxGeometry relative="1" as="geometry" />
        </mxCell>
        <mxCell id="u2DwO2f_TJGbcGotMEJf-17" value="True" style="edgeLabel;html=1;align=center;verticalAlign=middle;resizable=0;points=[];" vertex="1" connectable="0" parent="u2DwO2f_TJGbcGotMEJf-11">
          <mxGeometry x="0.5611" y="1" relative="1" as="geometry">
            <mxPoint x="19" as="offset" />
          </mxGeometry>
        </mxCell>
        <mxCell id="u2DwO2f_TJGbcGotMEJf-19" style="edgeStyle=orthogonalEdgeStyle;rounded=0;orthogonalLoop=1;jettySize=auto;html=1;exitX=1;exitY=0.5;exitDx=0;exitDy=0;entryX=0.5;entryY=0;entryDx=0;entryDy=0;" edge="1" parent="1" source="u2DwO2f_TJGbcGotMEJf-8" target="u2DwO2f_TJGbcGotMEJf-18">
          <mxGeometry relative="1" as="geometry" />
        </mxCell>
        <mxCell id="u2DwO2f_TJGbcGotMEJf-22" value="False" style="edgeLabel;html=1;align=center;verticalAlign=middle;resizable=0;points=[];" vertex="1" connectable="0" parent="u2DwO2f_TJGbcGotMEJf-19">
          <mxGeometry x="-0.4187" y="-4" relative="1" as="geometry">
            <mxPoint y="-14" as="offset" />
          </mxGeometry>
        </mxCell>
        <mxCell id="u2DwO2f_TJGbcGotMEJf-8" value="i &amp;lt; 4" style="rhombus;whiteSpace=wrap;html=1;" vertex="1" parent="1">
          <mxGeometry x="55" y="221" width="160" height="60" as="geometry" />
        </mxCell>
        <mxCell id="u2DwO2f_TJGbcGotMEJf-13" style="edgeStyle=orthogonalEdgeStyle;rounded=0;orthogonalLoop=1;jettySize=auto;html=1;entryX=0.5;entryY=0;entryDx=0;entryDy=0;" edge="1" parent="1" source="u2DwO2f_TJGbcGotMEJf-10">
          <mxGeometry relative="1" as="geometry">
            <mxPoint x="135" y="380" as="targetPoint" />
          </mxGeometry>
        </mxCell>
        <mxCell id="u2DwO2f_TJGbcGotMEJf-10" value="ip_decimal[i] =&lt;div&gt;strtol(ip_decimal_str[i]&lt;/div&gt;&lt;div&gt;, NULL, 2)&lt;/div&gt;" style="rounded=0;whiteSpace=wrap;html=1;" vertex="1" parent="1">
          <mxGeometry x="50" y="301" width="170" height="59" as="geometry" />
        </mxCell>
        <mxCell id="u2DwO2f_TJGbcGotMEJf-15" style="edgeStyle=orthogonalEdgeStyle;rounded=0;orthogonalLoop=1;jettySize=auto;html=1;" edge="1" parent="1" target="u2DwO2f_TJGbcGotMEJf-14">
          <mxGeometry relative="1" as="geometry">
            <mxPoint x="135" y="420" as="sourcePoint" />
          </mxGeometry>
        </mxCell>
        <mxCell id="u2DwO2f_TJGbcGotMEJf-16" style="edgeStyle=orthogonalEdgeStyle;rounded=0;orthogonalLoop=1;jettySize=auto;html=1;entryX=0;entryY=0.5;entryDx=0;entryDy=0;exitX=0;exitY=0.5;exitDx=0;exitDy=0;" edge="1" parent="1" source="u2DwO2f_TJGbcGotMEJf-14" target="u2DwO2f_TJGbcGotMEJf-8">
          <mxGeometry relative="1" as="geometry">
            <mxPoint x="5" y="251" as="targetPoint" />
            <Array as="points">
              <mxPoint x="30" y="400" />
              <mxPoint x="30" y="251" />
            </Array>
          </mxGeometry>
        </mxCell>
        <mxCell id="u2DwO2f_TJGbcGotMEJf-14" value="i++" style="rounded=0;whiteSpace=wrap;html=1;" vertex="1" parent="1">
          <mxGeometry x="50" y="380" width="170" height="40" as="geometry" />
        </mxCell>
        <mxCell id="u2DwO2f_TJGbcGotMEJf-21" style="edgeStyle=orthogonalEdgeStyle;rounded=0;orthogonalLoop=1;jettySize=auto;html=1;entryX=0.5;entryY=0;entryDx=0;entryDy=0;" edge="1" parent="1" source="u2DwO2f_TJGbcGotMEJf-18" target="u2DwO2f_TJGbcGotMEJf-20">
          <mxGeometry relative="1" as="geometry" />
        </mxCell>
        <mxCell id="u2DwO2f_TJGbcGotMEJf-18" value="변환된 10진수 IP주소" style="shape=parallelogram;perimeter=parallelogramPerimeter;whiteSpace=wrap;html=1;fixedSize=1;" vertex="1" parent="1">
          <mxGeometry x="245" y="301" width="160" height="40" as="geometry" />
        </mxCell>
        <mxCell id="u2DwO2f_TJGbcGotMEJf-20" value="끝" style="rounded=1;whiteSpace=wrap;html=1;" vertex="1" parent="1">
          <mxGeometry x="285" y="361" width="80" height="40" as="geometry" />
        </mxCell>
        <mxCell id="u2DwO2f_TJGbcGotMEJf-26" style="edgeStyle=orthogonalEdgeStyle;rounded=0;orthogonalLoop=1;jettySize=auto;html=1;entryX=0.5;entryY=0;entryDx=0;entryDy=0;" edge="1" parent="1" source="u2DwO2f_TJGbcGotMEJf-23" target="u2DwO2f_TJGbcGotMEJf-24">
          <mxGeometry relative="1" as="geometry" />
        </mxCell>
        <mxCell id="u2DwO2f_TJGbcGotMEJf-23" value="binaryToDecimal&lt;div&gt;(char *binary)&lt;/div&gt;" style="rounded=1;whiteSpace=wrap;html=1;" vertex="1" parent="1">
          <mxGeometry x="454" y="20" width="160" height="40" as="geometry" />
        </mxCell>
        <mxCell id="u2DwO2f_TJGbcGotMEJf-28" style="edgeStyle=orthogonalEdgeStyle;rounded=0;orthogonalLoop=1;jettySize=auto;html=1;entryX=0.5;entryY=0;entryDx=0;entryDy=0;" edge="1" parent="1" source="u2DwO2f_TJGbcGotMEJf-35" target="u2DwO2f_TJGbcGotMEJf-27">
          <mxGeometry relative="1" as="geometry" />
        </mxCell>
        <mxCell id="u2DwO2f_TJGbcGotMEJf-37" style="edgeStyle=orthogonalEdgeStyle;rounded=0;orthogonalLoop=1;jettySize=auto;html=1;" edge="1" parent="1" source="u2DwO2f_TJGbcGotMEJf-24" target="u2DwO2f_TJGbcGotMEJf-35">
          <mxGeometry relative="1" as="geometry" />
        </mxCell>
        <mxCell id="u2DwO2f_TJGbcGotMEJf-24" value="int result = 0, i =0" style="rounded=0;whiteSpace=wrap;html=1;" vertex="1" parent="1">
          <mxGeometry x="454" y="80" width="160" height="40" as="geometry" />
        </mxCell>
        <mxCell id="u2DwO2f_TJGbcGotMEJf-31" style="edgeStyle=orthogonalEdgeStyle;rounded=0;orthogonalLoop=1;jettySize=auto;html=1;entryX=0.5;entryY=0;entryDx=0;entryDy=0;" edge="1" parent="1" source="u2DwO2f_TJGbcGotMEJf-27" target="u2DwO2f_TJGbcGotMEJf-30">
          <mxGeometry relative="1" as="geometry" />
        </mxCell>
        <mxCell id="u2DwO2f_TJGbcGotMEJf-34" value="True" style="edgeLabel;html=1;align=center;verticalAlign=middle;resizable=0;points=[];" vertex="1" connectable="0" parent="u2DwO2f_TJGbcGotMEJf-31">
          <mxGeometry x="0.5667" y="2" relative="1" as="geometry">
            <mxPoint x="18" as="offset" />
          </mxGeometry>
        </mxCell>
        <mxCell id="u2DwO2f_TJGbcGotMEJf-42" value="False" style="edgeStyle=orthogonalEdgeStyle;rounded=0;orthogonalLoop=1;jettySize=auto;html=1;exitX=1;exitY=0.5;exitDx=0;exitDy=0;entryX=0.5;entryY=0;entryDx=0;entryDy=0;" edge="1" parent="1" source="u2DwO2f_TJGbcGotMEJf-27" target="u2DwO2f_TJGbcGotMEJf-41">
          <mxGeometry x="-0.2028" y="11" relative="1" as="geometry">
            <mxPoint as="offset" />
          </mxGeometry>
        </mxCell>
        <mxCell id="u2DwO2f_TJGbcGotMEJf-27" value="binary != &#39;NULL&#39;" style="rhombus;whiteSpace=wrap;html=1;" vertex="1" parent="1">
          <mxGeometry x="454" y="161" width="160" height="60" as="geometry" />
        </mxCell>
        <mxCell id="u2DwO2f_TJGbcGotMEJf-33" style="edgeStyle=orthogonalEdgeStyle;rounded=0;orthogonalLoop=1;jettySize=auto;html=1;entryX=0.5;entryY=0;entryDx=0;entryDy=0;" edge="1" parent="1" source="u2DwO2f_TJGbcGotMEJf-30" target="u2DwO2f_TJGbcGotMEJf-32">
          <mxGeometry relative="1" as="geometry" />
        </mxCell>
        <mxCell id="u2DwO2f_TJGbcGotMEJf-30" value="result = result * 2&lt;div&gt;+ (binary[i] - &#39;0&#39;)&lt;/div&gt;" style="rounded=0;whiteSpace=wrap;html=1;" vertex="1" parent="1">
          <mxGeometry x="454" y="241" width="160" height="40" as="geometry" />
        </mxCell>
        <mxCell id="u2DwO2f_TJGbcGotMEJf-38" style="edgeStyle=orthogonalEdgeStyle;rounded=0;orthogonalLoop=1;jettySize=auto;html=1;" edge="1" parent="1" source="u2DwO2f_TJGbcGotMEJf-32" target="u2DwO2f_TJGbcGotMEJf-35">
          <mxGeometry relative="1" as="geometry">
            <mxPoint x="414" y="140" as="targetPoint" />
            <Array as="points">
              <mxPoint x="434" y="321" />
              <mxPoint x="434" y="140" />
            </Array>
          </mxGeometry>
        </mxCell>
        <mxCell id="u2DwO2f_TJGbcGotMEJf-32" value="i++" style="rounded=0;whiteSpace=wrap;html=1;" vertex="1" parent="1">
          <mxGeometry x="454" y="301" width="160" height="40" as="geometry" />
        </mxCell>
        <mxCell id="u2DwO2f_TJGbcGotMEJf-36" value="" style="edgeStyle=orthogonalEdgeStyle;rounded=0;orthogonalLoop=1;jettySize=auto;html=1;entryDx=0;entryDy=0;exitX=1.067;exitY=0.027;exitDx=0;exitDy=0;exitPerimeter=0;" edge="1" parent="1" source="u2DwO2f_TJGbcGotMEJf-35" target="u2DwO2f_TJGbcGotMEJf-35">
          <mxGeometry relative="1" as="geometry">
            <mxPoint x="534" y="120" as="sourcePoint" />
            <mxPoint x="534" y="161" as="targetPoint" />
          </mxGeometry>
        </mxCell>
        <mxCell id="u2DwO2f_TJGbcGotMEJf-35" value="" style="shape=waypoint;sketch=0;fillStyle=solid;size=6;pointerEvents=1;points=[];fillColor=none;resizable=0;rotatable=0;perimeter=centerPerimeter;snapToPoint=1;" vertex="1" parent="1">
          <mxGeometry x="524" y="130" width="20" height="20" as="geometry" />
        </mxCell>
        <mxCell id="u2DwO2f_TJGbcGotMEJf-41" value="return result" style="rounded=1;whiteSpace=wrap;html=1;" vertex="1" parent="1">
          <mxGeometry x="633" y="240" width="160" height="40" as="geometry" />
        </mxCell>
      </root>
    </mxGraphModel>
  </diagram>
</mxfile>
